<svg width="9" height="7" viewBox="0 0 9 7" fill="none" xmlns="http://www.w3.org/2000/svg">
<path d="M0.994709 0H8.00529C8.66667 0 9 0.344167 9 1.04417V5.95583C9 6.65 8.66667 7 8.00529 7H0.994709C0.333333 7 0 6.65 0 5.95583V1.04417C0 0.344167 0.333333 0 0.994709 0ZM4.49735 5.01667L8.06349 1.79083C8.19048 1.67417 8.29101 1.40583 8.13228 1.16667C7.97884 0.9275 7.69841 0.921667 7.51323 1.0675L4.49735 3.31917L1.48677 1.0675C1.30159 0.921667 1.02116 0.9275 0.867725 1.16667C0.708995 1.40583 0.809524 1.67417 0.936508 1.79083L4.49735 5.01667Z" fill="#01B1B6"/>
</svg>
