<svg width="13" height="13" viewBox="0 0 13 13" fill="none" xmlns="http://www.w3.org/2000/svg">
<path d="M0.545471 6.21896C0.545819 7.70012 1.07122 9.13259 2.02723 10.2589C2.98324 11.3852 4.30718 12.1315 5.76107 12.3636V8.01652H4.19274V6.21896H5.76293V4.85057C5.72825 4.5303 5.7641 4.20627 5.86791 3.90151C5.97171 3.59675 6.14094 3.31872 6.36358 3.08717C6.58621 2.85563 6.85678 2.67625 7.15607 2.56177C7.45537 2.44729 7.77604 2.40053 8.09533 2.42479C8.55896 2.43226 9.0226 2.47393 9.48005 2.54919V4.07868H8.69867C8.56587 4.06117 8.43085 4.07392 8.30361 4.11598C8.17636 4.15804 8.06013 4.22834 7.96351 4.32167C7.86689 4.415 7.79236 4.52899 7.74541 4.6552C7.69846 4.78141 7.6803 4.91663 7.69227 5.05085V6.21896H9.40525L9.1314 8.01714H7.69227V12.3636C8.85916 12.1781 9.94878 11.66 10.8321 10.8707C11.7155 10.0814 12.3555 9.05398 12.6765 7.91005C12.9975 6.76611 12.986 5.55358 12.6434 4.416C12.3008 3.27843 11.6414 2.26347 10.7432 1.49127C9.84509 0.719071 8.74586 0.221982 7.57566 0.0588548C6.40546 -0.104273 5.21331 0.0733931 4.14035 0.570817C3.0674 1.06824 2.15856 1.86459 1.52146 2.86559C0.884355 3.86658 0.545659 5.0303 0.545471 6.21896Z" fill="#01B1B6"/>
</svg>
