<svg width="13" height="13" viewBox="0 0 13 13" fill="none" xmlns="http://www.w3.org/2000/svg">
<path fill-rule="evenodd" clip-rule="evenodd" d="M3.63322 0.0370909C4.29243 0.00674379 4.50261 0 6.18182 0C7.86103 0 8.07121 0.00730578 8.72985 0.0370909C9.3885 0.066876 9.83808 0.171967 10.2315 0.324265C10.6434 0.479934 11.0171 0.723273 11.3262 1.03798C11.6409 1.34651 11.8837 1.71967 12.0388 2.13217C12.1917 2.52555 12.2962 2.97514 12.3265 3.63266C12.3569 4.29299 12.3636 4.50317 12.3636 6.18182C12.3636 7.86103 12.3563 8.07121 12.3265 8.73041C12.2968 9.38793 12.1917 9.83752 12.0388 10.2309C11.8837 10.6435 11.6405 11.0172 11.3262 11.3262C11.0171 11.6409 10.6434 11.8837 10.2315 12.0388C9.83808 12.1917 9.3885 12.2962 8.73098 12.3265C8.07121 12.3569 7.86103 12.3636 6.18182 12.3636C4.50261 12.3636 4.29243 12.3563 3.63322 12.3265C2.9757 12.2968 2.52612 12.1917 2.13273 12.0388C1.72019 11.8837 1.34641 11.6405 1.03742 11.3262C0.722924 11.0175 0.479549 10.6439 0.324265 10.2315C0.171967 9.83808 0.067438 9.3885 0.0370909 8.73098C0.00674379 8.07065 0 7.86046 0 6.18182C0 4.50261 0.00730578 4.29243 0.0370909 3.63379C0.066876 2.97514 0.171967 2.52555 0.324265 2.13217C0.479778 1.71972 0.72334 1.34613 1.03798 1.03742C1.34654 0.722992 1.71993 0.479621 2.13217 0.324265C2.52555 0.171967 2.97514 0.067438 3.63266 0.0370909H3.63322ZM8.67984 1.14982C8.02793 1.12003 7.83236 1.11385 6.18182 1.11385C4.53127 1.11385 4.3357 1.12003 3.6838 1.14982C3.08079 1.17736 2.75372 1.27795 2.53567 1.36281C2.24737 1.47521 2.04112 1.6084 1.82476 1.82476C1.61966 2.02429 1.46182 2.2672 1.36281 2.53567C1.27795 2.75372 1.17736 3.08079 1.14982 3.6838C1.12003 4.3357 1.11385 4.53127 1.11385 6.18182C1.11385 7.83236 1.12003 8.02793 1.14982 8.67984C1.17736 9.28284 1.27795 9.60992 1.36281 9.82797C1.46172 10.096 1.61964 10.3394 1.82476 10.5389C2.02426 10.744 2.2676 10.9019 2.53567 11.0008C2.75372 11.0857 3.08079 11.1863 3.6838 11.2138C4.3357 11.2436 4.53071 11.2498 6.18182 11.2498C7.83293 11.2498 8.02793 11.2436 8.67984 11.2138C9.28284 11.1863 9.60992 11.0857 9.82797 11.0008C10.1163 10.8884 10.3225 10.7552 10.5389 10.5389C10.744 10.3394 10.9019 10.096 11.0008 9.82797C11.0857 9.60992 11.1863 9.28284 11.2138 8.67984C11.2436 8.02793 11.2498 7.83236 11.2498 6.18182C11.2498 4.53127 11.2436 4.3357 11.2138 3.6838C11.1863 3.08079 11.0857 2.75372 11.0008 2.53567C10.8884 2.24737 10.7552 2.04112 10.5389 1.82476C10.3393 1.61968 10.0964 1.46184 9.82797 1.36281C9.60992 1.27795 9.28284 1.17736 8.67984 1.14982V1.14982ZM5.39223 8.0875C5.8332 8.27107 6.32421 8.29584 6.78142 8.1576C7.23862 8.01935 7.63364 7.72666 7.89902 7.32953C8.1644 6.93239 8.28367 6.45543 8.23646 5.98013C8.18925 5.50482 7.97848 5.06065 7.64017 4.72347C7.4245 4.50794 7.16372 4.3429 6.87662 4.24025C6.58951 4.13759 6.28322 4.09987 5.97978 4.1298C5.67635 4.15973 5.38333 4.25656 5.12181 4.41333C4.86029 4.5701 4.63678 4.7829 4.46738 5.03641C4.29797 5.28993 4.18688 5.57785 4.14211 5.87945C4.09733 6.18105 4.11999 6.48883 4.20844 6.78062C4.29689 7.07242 4.44893 7.34097 4.65363 7.56695C4.85833 7.79293 5.11058 7.97072 5.39223 8.0875ZM3.93501 3.93501C4.23006 3.63995 4.58035 3.4059 4.96585 3.24622C5.35136 3.08654 5.76455 3.00435 6.18182 3.00435C6.59909 3.00435 7.01228 3.08654 7.39778 3.24622C7.78329 3.4059 8.13357 3.63995 8.42863 3.93501C8.72368 4.23006 8.95773 4.58035 9.11742 4.96585C9.2771 5.35136 9.35929 5.76455 9.35929 6.18182C9.35929 6.59909 9.2771 7.01228 9.11742 7.39778C8.95773 7.78329 8.72368 8.13357 8.42863 8.42863C7.83274 9.02452 7.02454 9.35929 6.18182 9.35929C5.3391 9.35929 4.5309 9.02452 3.93501 8.42863C3.33912 7.83274 3.00435 7.02454 3.00435 6.18182C3.00435 5.3391 3.33912 4.5309 3.93501 3.93501V3.93501ZM10.064 3.47755C10.1371 3.40858 10.1957 3.32564 10.2361 3.23364C10.2766 3.14164 10.2982 3.04245 10.2997 2.94194C10.3012 2.84144 10.2825 2.74166 10.2447 2.64852C10.2069 2.55538 10.1508 2.47077 10.0797 2.39969C10.0086 2.32862 9.92403 2.27253 9.83089 2.23474C9.73774 2.19695 9.63797 2.17823 9.53746 2.1797C9.43696 2.18116 9.33777 2.20278 9.24577 2.24327C9.15377 2.28375 9.07082 2.34229 9.00185 2.41541C8.86771 2.5576 8.79427 2.74648 8.79712 2.94194C8.79997 3.13741 8.87889 3.32406 9.01711 3.46229C9.15534 3.60052 9.342 3.67943 9.53746 3.68228C9.73292 3.68513 9.9218 3.61169 10.064 3.47755V3.47755Z" fill="#01B1B6"/>
</svg>
