<svg width="12" height="12" viewBox="0 0 12 12" fill="none" xmlns="http://www.w3.org/2000/svg">
<path d="M10.2225 10.2266H8.44763V7.4415C8.44763 6.77738 8.43375 5.92388 7.5195 5.92388C6.594 5.92388 6.453 6.64425 6.453 7.39238V10.2263H4.67587V4.49963H6.38287V5.28075H6.40575C6.64425 4.82963 7.22437 4.35525 8.08988 4.35525C9.89025 4.35525 10.2244 5.54063 10.2244 7.08188V10.2263L10.2225 10.2266ZM2.66812 3.717C2.53248 3.71705 2.39815 3.69034 2.27285 3.63839C2.14754 3.58645 2.03371 3.5103 1.93788 3.41429C1.84205 3.31829 1.7661 3.20432 1.71439 3.07892C1.66267 2.95352 1.6362 2.81915 1.6365 2.6835C1.63672 2.47933 1.69748 2.27981 1.81109 2.11017C1.92469 1.94053 2.08605 1.80838 2.27475 1.73044C2.46346 1.6525 2.67104 1.63226 2.87125 1.67228C3.07145 1.7123 3.2553 1.81079 3.39954 1.95529C3.54377 2.09979 3.64193 2.28381 3.68159 2.48409C3.72124 2.68437 3.70063 2.89191 3.62234 3.08048C3.54406 3.26904 3.41162 3.43016 3.24177 3.54346C3.07192 3.65676 2.87229 3.71715 2.66812 3.717ZM3.55838 10.2266H1.7775V4.5H3.55838V10.2266ZM11.1135 0H0.885C0.396375 0 0 0.386625 0 0.865125V11.1353C0 11.6138 0.396375 12.0004 0.885 12.0004H11.1116C11.5995 12.0004 12 11.6138 12 11.1353V0.865125C12 0.386625 11.5995 0 11.1116 0H11.1135Z" fill="#01B1B6"/>
</svg>
