<svg width="9" height="9" viewBox="0 0 9 9" fill="none" xmlns="http://www.w3.org/2000/svg">
<path d="M0 4.5C0 3.30653 0.474106 2.16193 1.31802 1.31802C2.16193 0.474106 3.30653 0 4.5 0C5.69347 0 6.83807 0.474106 7.68198 1.31802C8.52589 2.16193 9 3.30653 9 4.5C9 5.69347 8.52589 6.83807 7.68198 7.68198C6.83807 8.52589 5.69347 9 4.5 9C3.30653 9 2.16193 8.52589 1.31802 7.68198C0.474106 6.83807 0 5.69347 0 4.5ZM4.21875 0.605812C3.84188 0.720563 3.46781 1.06706 3.15731 1.64925C3.05501 1.8428 2.96703 2.04359 2.89406 2.25H4.21875V0.605812ZM2.30063 2.25C2.39438 1.95121 2.51487 1.66148 2.66062 1.38431C2.75789 1.20041 2.87021 1.02487 2.99644 0.8595C2.2995 1.14853 1.69988 1.63104 1.26844 2.25H2.30063ZM1.97325 4.21875C1.99012 3.72544 2.05087 3.25237 2.14875 2.8125H0.941625C0.731879 3.25409 0.60672 3.73107 0.572625 4.21875H1.97325ZM2.72644 2.8125C2.6158 3.27364 2.5521 3.74479 2.53631 4.21875H4.21875V2.8125H2.72644ZM4.78125 2.8125V4.21875H6.46312C6.44754 3.74481 6.38403 3.27365 6.27356 2.8125H4.78125ZM2.53688 4.78125C2.55248 5.25519 2.61599 5.72634 2.72644 6.1875H4.21875V4.78125H2.53688ZM4.78125 4.78125V6.1875H6.27356C6.37875 5.75719 6.44569 5.283 6.46369 4.78125H4.78125ZM2.89406 6.75C2.97169 6.96712 3.06 7.1685 3.15731 7.35075C3.46781 7.93294 3.84244 8.27888 4.21875 8.39419V6.75H2.89406ZM2.99644 8.1405C2.8702 7.97514 2.75788 7.7996 2.66062 7.61569C2.51487 7.33852 2.39438 7.04879 2.30063 6.75H1.26844C1.69986 7.36898 2.29949 7.8515 2.99644 8.1405ZM2.14875 6.1875C2.04703 5.72516 1.98828 5.25441 1.97325 4.78125H0.572625C0.6075 5.28188 0.736313 5.75606 0.941625 6.1875H2.14875ZM6.00356 8.1405C6.70051 7.8515 7.30014 7.36898 7.73156 6.75H6.69938C6.60561 7.04879 6.48513 7.33852 6.33938 7.61569C6.24214 7.79961 6.12982 7.97515 6.00356 8.1405ZM4.78125 6.75V8.39419C5.15812 8.27944 5.53219 7.93294 5.84269 7.35075C5.94 7.1685 6.02831 6.96712 6.10594 6.75H4.78125ZM6.85125 6.1875H8.05838C8.26369 5.75606 8.3925 5.28188 8.42737 4.78125H7.02675C7.01173 5.25441 6.95298 5.72516 6.85125 6.1875ZM8.42737 4.21875C8.39327 3.73107 8.26811 3.2541 8.05838 2.8125H6.85125C6.94913 3.25237 7.00987 3.72544 7.02675 4.21875H8.42737ZM6.33938 1.38431C6.47831 1.64531 6.59925 1.93556 6.69938 2.25H7.73156C7.30014 1.63102 6.70051 1.1485 6.00356 0.8595C6.12619 1.01925 6.23869 1.19587 6.33938 1.38431ZM6.10594 2.25C6.03298 2.04359 5.945 1.8428 5.84269 1.64925C5.53219 1.06706 5.15812 0.721125 4.78125 0.605812V2.25H6.10594Z" fill="#01B1B6"/>
</svg>
