<svg width="15" height="10" viewBox="0 0 15 10" fill="none" xmlns="http://www.w3.org/2000/svg">
<path d="M14.8364 4.90283C14.8364 4.86935 14.8364 4.83129 14.8347 4.78715C14.8331 4.66386 14.8297 4.52534 14.8264 4.37769C14.8132 3.95301 14.79 3.52986 14.7536 3.13106C14.7039 2.58156 14.631 2.12339 14.5317 1.77939C14.4268 1.42039 14.2213 1.09298 13.9357 0.829869C13.6501 0.566763 13.2943 0.377182 12.904 0.280075C12.4354 0.164392 11.5181 0.0928509 10.2265 0.0487086C9.61217 0.0273986 8.95481 0.0136992 8.29743 0.00608849C8.06727 0.0030442 7.85367 0.00152215 7.66159 0H7.17477C6.9827 0.00152215 6.76909 0.0030442 6.53893 0.00608849C5.88156 0.0136992 5.22419 0.0273986 4.60987 0.0487086C3.31831 0.094373 2.39932 0.165914 1.93237 0.280075C1.54192 0.376943 1.18603 0.566445 0.900356 0.829588C0.614681 1.09273 0.409259 1.42027 0.304675 1.77939C0.203669 2.12339 0.132468 2.58156 0.0827922 3.13106C0.0463636 3.52986 0.0231818 3.95301 0.00993504 4.37769C0.00496751 4.52534 0.00331166 4.66386 0.00165582 4.78715C0.00165582 4.83129 0 4.86935 0 4.90283V4.98807C0 5.02156 -2.52909e-08 5.05962 0.00165582 5.10376C0.00331166 5.22705 0.00662335 5.36557 0.00993504 5.51321C0.0231818 5.93789 0.0463636 6.36105 0.0827922 6.75985C0.132468 7.30935 0.205325 7.76751 0.304675 8.11152C0.516623 8.84063 1.13922 9.416 1.93237 9.61083C2.39932 9.72652 3.31831 9.79806 4.60987 9.8422C5.22419 9.86351 5.88156 9.87721 6.53893 9.88482C6.76909 9.88786 6.9827 9.88939 7.17477 9.89091H7.66159C7.85367 9.88939 8.06727 9.88786 8.29743 9.88482C8.95481 9.87721 9.61217 9.86351 10.2265 9.8422C11.5181 9.79653 12.437 9.72499 12.904 9.61083C13.6971 9.416 14.3197 8.84215 14.5317 8.11152C14.6327 7.76751 14.7039 7.30935 14.7536 6.75985C14.79 6.36105 14.8132 5.93789 14.8264 5.51321C14.8314 5.36557 14.8331 5.22705 14.8347 5.10376C14.8347 5.05962 14.8364 5.02156 14.8364 4.98807V4.90283ZM13.6442 4.98199C13.6442 5.01395 13.6442 5.04896 13.6425 5.09006C13.6408 5.20879 13.6375 5.33969 13.6342 5.48125C13.6226 5.88614 13.5994 6.29103 13.5647 6.667C13.52 7.15713 13.457 7.55898 13.3792 7.8284C13.2766 8.18002 12.9752 8.45857 12.5944 8.55142C12.2466 8.63666 11.3707 8.70516 10.1801 8.74625C9.5774 8.76756 8.92831 8.78126 8.28088 8.78887C8.05403 8.79192 7.84373 8.79344 7.65497 8.79344H7.1814L6.55549 8.78887C5.90805 8.78126 5.26062 8.76756 4.65623 8.74625C3.46568 8.70363 2.58808 8.63666 2.24201 8.55142C1.86117 8.45705 1.55981 8.18002 1.45714 7.8284C1.37932 7.55898 1.3164 7.15713 1.27169 6.667C1.23692 6.29103 1.21539 5.88614 1.20214 5.48125C1.19718 5.33969 1.19552 5.20726 1.19386 5.09006C1.19386 5.04896 1.19221 5.01243 1.19221 4.98199V4.90892C1.19221 4.87696 1.19221 4.84195 1.19386 4.80085C1.19552 4.68212 1.19883 4.55122 1.20214 4.40966C1.21373 4.00477 1.23692 3.59988 1.27169 3.22391C1.3164 2.73377 1.37932 2.33193 1.45714 2.06251C1.55981 1.71089 1.86117 1.43234 2.24201 1.33949C2.58974 1.25425 3.46568 1.18575 4.65623 1.14465C5.25896 1.12334 5.90805 1.10964 6.55549 1.10203C6.78234 1.09899 6.99263 1.09747 7.1814 1.09747H7.65497L8.28088 1.10203C8.92831 1.10964 9.57575 1.12334 10.1801 1.14465C11.3707 1.18727 12.2483 1.25425 12.5944 1.33949C12.9752 1.43386 13.2766 1.71089 13.3792 2.06251C13.457 2.33193 13.52 2.73377 13.5647 3.22391C13.5994 3.59988 13.621 4.00477 13.6342 4.40966C13.6392 4.55122 13.6408 4.68364 13.6425 4.80085C13.6425 4.84195 13.6442 4.87848 13.6442 4.90892V4.98199ZM5.94448 6.98513L9.78604 4.93023L5.94448 2.90578V6.98513Z" fill="#01B1B6"/>
</svg>
