<svg width="24" height="24" viewBox="0 0 14 14" fill="none" xmlns="http://www.w3.org/2000/svg">
<path d="M0 7.04205C0.000394262 8.71925 0.59533 10.3413 1.67787 11.6167C2.76042 12.8921 4.25958 13.7371 5.9059 14V9.07753H4.13V7.04205H5.908V5.49256C5.86874 5.1299 5.90933 4.76299 6.02687 4.41789C6.14442 4.07279 6.33605 3.75796 6.58815 3.49577C6.84025 3.23358 7.14663 3.03046 7.48554 2.90083C7.82444 2.7712 8.18756 2.71824 8.5491 2.74572C9.0741 2.75417 9.5991 2.80136 10.1171 2.88659V4.6185H9.2323C9.08192 4.59868 8.92903 4.61312 8.78495 4.66075C8.64086 4.70837 8.50924 4.78797 8.39984 4.89365C8.29043 4.99934 8.20603 5.12841 8.15287 5.27133C8.09971 5.41425 8.07914 5.56736 8.0927 5.71935V7.04205H10.0324L9.7223 9.07823H8.0927V14C9.41403 13.7899 10.6479 13.2032 11.6481 12.3095C12.6484 11.4157 13.3731 10.2523 13.7366 8.95696C14.1001 7.66162 14.0871 6.28861 13.6991 5.00048C13.3112 3.71234 12.5645 2.56304 11.5475 1.68864C10.5305 0.814242 9.28573 0.251362 7.96065 0.0666444C6.63558 -0.118073 5.28564 0.0831068 4.07068 0.646367C2.85571 1.20963 1.82659 2.11138 1.10516 3.24486C0.383736 4.37833 0.000212359 5.69607 0 7.04205Z" fill="#01B1B6"/>
</svg>
