<svg width="24" height="24" viewBox="0 0 14 14" fill="none" xmlns="http://www.w3.org/2000/svg">
<path d="M11.9263 11.9311H9.85556V8.68175C9.85556 7.90694 9.83937 6.91119 8.77275 6.91119C7.693 6.91119 7.5285 7.75163 7.5285 8.62444V11.9306H5.45519V5.24956H7.44669V6.16088H7.47338C7.75163 5.63456 8.42844 5.08113 9.43819 5.08113C11.5386 5.08113 11.9284 6.46406 11.9284 8.26219V11.9306L11.9263 11.9311ZM3.11281 4.3365C2.95456 4.33656 2.79785 4.30539 2.65165 4.24479C2.50546 4.18419 2.37266 4.09535 2.26086 3.98334C2.14906 3.87134 2.06046 3.73837 2.00012 3.59207C1.93978 3.44577 1.9089 3.289 1.90925 3.13075C1.90951 2.89255 1.98039 2.65978 2.11293 2.46187C2.24547 2.26395 2.43372 2.10978 2.65388 2.01885C2.87404 1.92791 3.11621 1.9043 3.34979 1.95099C3.58336 1.99769 3.79785 2.11259 3.96613 2.28117C4.1344 2.44975 4.24892 2.66445 4.29518 2.89811C4.34145 3.13177 4.3174 3.3739 4.22607 3.59389C4.13473 3.81388 3.98022 4.00185 3.78206 4.13403C3.58391 4.26621 3.35101 4.33667 3.11281 4.3365ZM4.15144 11.9311H2.07375V5.25H4.15144V11.9311ZM12.9657 0H1.0325C0.462437 0 0 0.451063 0 1.00931V12.9911C0 13.5494 0.462437 14.0004 1.0325 14.0004H12.9636C13.5328 14.0004 14 13.5494 14 12.9911V1.00931C14 0.451063 13.5328 0 12.9636 0H12.9657Z" fill="#01B1B6"/>
</svg>
