<svg width="24" height="18" viewBox="0 0 17 11" fill="none" xmlns="http://www.w3.org/2000/svg">
<path d="M17 5.4526C17 5.41536 17 5.37304 16.9981 5.32395C16.9962 5.18683 16.9924 5.03278 16.9886 4.86857C16.9734 4.39628 16.9469 3.92567 16.9051 3.48215C16.8482 2.87104 16.7647 2.3615 16.6509 1.97892C16.5308 1.57966 16.2953 1.21553 15.968 0.922924C15.6407 0.630315 15.2331 0.419476 14.7858 0.31148C14.2489 0.182825 13.1978 0.103262 11.7179 0.0541705C11.014 0.0304709 10.2607 0.0152354 9.50748 0.00677121C9.24375 0.00338555 8.999 0.00169283 8.77891 0H8.22109C8.001 0.00169283 7.75625 0.00338555 7.49252 0.00677121C6.73929 0.0152354 5.98605 0.0304709 5.28214 0.0541705C3.80223 0.104955 2.74922 0.184518 2.21417 0.31148C1.76679 0.419211 1.35899 0.629961 1.03166 0.922611C0.704322 1.21526 0.468942 1.57953 0.349107 1.97892C0.233371 2.3615 0.151786 2.87104 0.0948661 3.48215C0.053125 3.92567 0.0265625 4.39628 0.0113839 4.86857C0.00569194 5.03278 0.00379461 5.18683 0.00189729 5.32395C0.00189729 5.37304 0 5.41536 0 5.4526V5.5474C0 5.58464 -2.89791e-08 5.62696 0.00189729 5.67605C0.00379461 5.81317 0.00758926 5.96722 0.0113839 6.13142C0.0265625 6.60372 0.053125 7.07433 0.0948661 7.51785C0.151786 8.12896 0.235268 8.6385 0.349107 9.02108C0.591964 9.83195 1.30536 10.4718 2.21417 10.6885C2.74922 10.8172 3.80223 10.8967 5.28214 10.9458C5.98605 10.9695 6.73929 10.9848 7.49252 10.9932C7.75625 10.9966 8.001 10.9983 8.22109 11H8.77891C8.999 10.9983 9.24375 10.9966 9.50748 10.9932C10.2607 10.9848 11.014 10.9695 11.7179 10.9458C13.1978 10.895 14.2508 10.8155 14.7858 10.6885C15.6946 10.4718 16.408 9.83364 16.6509 9.02108C16.7666 8.6385 16.8482 8.12896 16.9051 7.51785C16.9469 7.07433 16.9734 6.60372 16.9886 6.13142C16.9943 5.96722 16.9962 5.81317 16.9981 5.67605C16.9981 5.62696 17 5.58464 17 5.5474V5.4526ZM15.6339 5.54063C15.6339 5.57618 15.6339 5.61511 15.632 5.66082C15.6301 5.79286 15.6263 5.93844 15.6225 6.09587C15.6093 6.54617 15.5827 6.99646 15.5429 7.41459C15.4916 7.95968 15.4195 8.40659 15.3304 8.70622C15.2127 9.09726 14.8674 9.40705 14.431 9.51031C14.0326 9.60511 13.0289 9.68128 11.6647 9.72699C10.9741 9.75069 10.2304 9.76593 9.4885 9.77439C9.22857 9.77778 8.98761 9.77947 8.77132 9.77947H8.22868L7.5115 9.77439C6.76964 9.76593 6.02779 9.75069 5.33527 9.72699C3.97109 9.67959 2.96551 9.60511 2.56897 9.51031C2.13259 9.40536 1.78728 9.09726 1.66964 8.70622C1.58047 8.40659 1.50837 7.95968 1.45714 7.41459C1.4173 6.99646 1.39263 6.54617 1.37746 6.09587C1.37176 5.93844 1.36987 5.79117 1.36797 5.66082C1.36797 5.61511 1.36607 5.57448 1.36607 5.54063V5.45937C1.36607 5.42382 1.36607 5.38489 1.36797 5.33918C1.36987 5.20714 1.37366 5.06156 1.37746 4.90412C1.39074 4.45383 1.4173 4.00354 1.45714 3.58541C1.50837 3.04032 1.58047 2.59341 1.66964 2.29378C1.78728 1.90274 2.13259 1.59295 2.56897 1.48969C2.96741 1.39489 3.97109 1.31871 5.33527 1.27301C6.02589 1.24931 6.76964 1.23407 7.5115 1.22561C7.77143 1.22222 8.01239 1.22053 8.22868 1.22053H8.77132L9.4885 1.22561C10.2304 1.23407 10.9722 1.24931 11.6647 1.27301C13.0289 1.32041 14.0345 1.39489 14.431 1.48969C14.8674 1.59464 15.2127 1.90274 15.3304 2.29378C15.4195 2.59341 15.4916 3.04032 15.5429 3.58541C15.5827 4.00354 15.6074 4.45383 15.6225 4.90412C15.6282 5.06156 15.6301 5.20883 15.632 5.33918C15.632 5.38489 15.6339 5.42551 15.6339 5.45937V5.54063ZM6.81138 7.76839L11.2132 5.48307L6.81138 3.23161V7.76839Z" fill="#01B1B6"/>
</svg>
